<svg xmlns="http://www.w3.org/2000/svg" viewBox="0 0 403.3465 403.3465" role="img" aria-label="experience Architects">
  <title>experience Architects</title>
  <g transform="translate(8.83,0)">
    <path fill="#183d7b" d="M154.7018,271.9034l-150.4524.0149C1.6073,271.9185-.001,270.2448,0,267.6788l.038-92.9439c.0007-1.736,2.0878-3.2703,3.6364-3.2715l73.4988-.0533c2.3873-.0017,4.3641,1.2608,4.3652,3.8387l.0298,71.9191c1.3806.4534,2.4546.5048,3.8495-.0491l.0094-242.911c.0001-2.7342,1.8037-4.1454,4.3763-4.1471L182.2589,0c2.0643-.0014,4.1346,1.2546,4.135,3.6101l.0304,160.4276c-.48,2.2125-1.9904,3.1794-4.1584,3.1789l-72.3218-.0159.0076,80.2648,44.3256.0237c2.2194-.0501,3.7088,1.5866,3.6687,3.7179l.0118,17.0769c.0012,1.7967-1.0681,3.6192-3.256,3.6194Z"/>
    <path fill="#183d7b" d="M183.3351,403.3465l-94.02-.0294c-2.258-.0007-3.4483-1.1096-3.865-3.3307l-.0314-119.6322c-.2591-2.5828,1.3418-4.2652,3.8619-4.2644l72.481.0243.0022-80.3713-44.4865-.0525c-1.8861-.0784-3.0958-1.4354-3.3108-3.2003l.0292-17.7508c.0033-2.0114,1.6852-3.3017,3.8901-3.3017l264.0128.0024c2.5429,0,3.7859,2.0165,3.785,4.2784l-.0387,92.4629c-.0009,2.1484-1.465,3.7347-3.7399,3.7347l-187.4614.0065c-2.3795,0-4.0212-1.4602-4.0217-3.7527l-.0163-72.338-4.0729.0359.0637,203.3849c.0007,2.1888-.7764,3.4183-3.0614,4.0938Z"/>
  </g>
</svg>
